<svg height="32" viewBox="0 0 32 32" width="32" xmlns="http://www.w3.org/2000/svg" xmlns:xlink="http://www.w3.org/1999/xlink"><filter id="a"><feColorMatrix in="SourceGraphic" type="matrix" values="0 0 0 0 1.000000 0 0 0 0 1.000000 0 0 0 0 1.000000 0 0 0 1.000000 0"/></filter><g fill="none" fill-rule="evenodd" filter="url(#a)"><path d="m16.0000169 32c4.9405194-.0008439 9.6027655-2.2871736 12.6283691-6.1928712.0084097-.0089326.0202692-.0134556.0278673-.0232234 1.6616777-2.1352634 2.7483732-4.6607726 3.1563674-7.3354813.0024312-.0156721.0044292-.0314653.0067902-.0471375.0339174-.2266587.0629437-.454431.087079-.6833167.0059551-.0554745.011624-.1110192.0170068-.1666341.0188175-.1972188.0339264-.3951829.0453267-.5938924.0038361-.0645229.0087415-.1287804.0117893-.1935023.0117893-.2537053.0193873-.5081598.0193873-.7639411 0-.2981228-.0097171-.5939236-.0258927-.8880581-.0065248-.1203785-.0182673-.2396643-.027438-.3594925-.0131239-.1690185-.026318-.337916-.0446594-.505432-.0162186-.1495804-.036562-.2982554-.0569522-.4469305-.0184585-.1336702-.0377287-.2669813-.0595004-.3996096-.0265574-.1626327-.0555759-.3246944-.0870555-.4861851-.0227941-.116117-.0478517-.2313247-.0731473-.3465364-.0367999-.1679219-.0739082-.3357228-.1162106-.50231-.0277502-.109397-.0595238-.2171082-.0895101-.3255764-.0660019-.2382087-.1367413-.4751334-.214033-.7103646-.0595238-.1816896-.1189735-.3633754-.1847842-.5421577-.0420877-.1139941-.0893891-.2264429-.1341696-.339676-.0646438-.16387111-.1299784-.32734029-.1998359-.48854217-.0469931-.1082536-.0967803-.21560575-.1463179-.32312179-.075101-.16318171-.1527178-.32491041-.2328504-.4851861-.0299863-.05983217-.0558322-.12090141-.0866029-.18047211-.0053112-.0102439-.0138146-.01767414-.0199375-.02727413-.7384817-1.42004678-1.6848413-2.72187904-2.8077824-3.86244494-.0118923-.01885497-.0254181-.03662867-.0404214-.05311608-.0867473-.08734434-.1812837-.16561162-.2698885-.25083304-.1499628-.14429262-.3017324-.28653645-.457221-.42494809-.1280974-.11392384-.2566944-.22675111-.388265-.33641349-.2301578-.1921456-.4654746-.3780577-.7059504-.55773631-.1128272-.08374631-.2282925-.16356285-.3433441-.24433159-.2216088-.15605846-.4471865-.30660798-.6767329-.45164856-.0758126-.04766047-.1493891-.09829849-.2260368-.14472188-.3040934-.18483113-.6169945-.35606227-.93388-.52074511-.0457561-.02372292-.0886985-.05178144-.134716-.0750985-.0068136-.00340683-.0146732-.00209561-.0216273-.00507317-1.073382-.54352349-2.205068-.96327397-3.3732647-1.25116817-.0031454-.00085854-.0055025-.00326244-.0086712-.00405073-.0368-.0089756-.0741697-.01491121-.1110165-.02362926-.2462124-.05857037-.4944892-.11143149-.7448304-.15858333-.0648819-.01219512-.1297872-.02348487-.1947901-.03487218-.2362794-.04132421-.4742434-.07732159-.7138919-.10799214-.0722887-.00933854-.1444135-.01927024-.2167959-.02762926-.2349929-.02692681-.4716561-.04766046-.7095563-.06426143-.0712194-.00504975-.1422672-.01221853-.2135334-.01629268-.3010182-.01694828-.6036989-.02748486-.9088693-.02748486-.0495609 0-.0983414.00152585-.1474847.00343024l-.0948916.00266927-.0003317.00007024c-.8939987.01323024-1.7853175.10133276-2.664606.26338329-.0023415.00039024-.0046205-.00054634-.0069307-.00012098-.0141971.00261854-.0280976.00628683-.0422556.00893268-.2335894.04385039-.4652639.09285329-.6950237.14700871-.0354419.00831219-.0710516.01607804-.1064233.02462828-.2360192.05706924-.4698778.11943409-.7015758.18709454-.0258185.00750439-.0518282.01443902-.0775999.02210341-.2459991.0728611-.4894096.1514783-.7302315.23585159-.010958.0038361-.0220565.00733658-.0329872.01119609-1.78873037.63009522-3.45118382 1.57320461-4.90974705 2.78529815-.05668677.04699315-.11094622.09691703-.16699299.14469847-.14031595.11987896-.28041727.2398789-.41646785.3644486-.09884868.09032191-.19419297.18452284-.29084848.2773423-.08924868.08585362-.17956664.17056382-.26678996.25845451-.11320964.11387702-.22272757.23144574-.33260062.34879983-.06693067.0715746-.13476669.14217359-.20038613.21498526-.11559013.1280975-.22763293.25951207-.33919965.39145737-.0564253.06680972-.1134711.13300286-.16880372.20074136-.11142232.13624189-.21955879.27529353-.3266338.41544566-.05261653.0688585-.10532672.13752968-.15682325.20724672-.10302428.1394575-.2032193.28108474-.30185334.4241598-.05297165.07679215-.10534103.15400447-.15710813.23163696-.04658727.07019313-.09622624.13795895-.14174424.20898331-.00564682.0088117-.00602536.01972291-.01092682.02891706-3.14393864 4.92359018-3.3520833 11.16997348-.54288689 16.29193678s8.18840482 8.3038987 14.03015462 8.2992005zm11.1771979-6.8746308c-.4035357-.135118-.731881-.433325-.9051073-.8220289-.0827202-.1387984-.1171624-.3010775-.0979511-.46151.2503802-.5011432.2705792-1.7892674.2705792-3.296494 0-.5201949.5327721-.9306415 1.1497705-1.4058686.352292-.2574512.6840836-.541841.9923892-.8506103.2187804-.1817357.3157747-.4716909.2503802-.7484874-.129951-.4214945-.6410061-.5320115-1.1817821-.6490105-.2588307-.0420396-.5110805-.1176248-.7503797-.2248467.085082-.4951339-.0498958-1.0027597-.369666-1.3902432-.3894121-.4335084-.9552914-.6657249-1.5369662-.6307158-.533537 0-1.0956554-.1974087-1.217985-1.6623484-.0205523-.515845-.3530213-.9672361-.8395582-1.1398629-.3573715-.1281914-.6193625-.4370911-.6874997-.8105947-.2054125-.7709616.2766826-1.05182781 1.4253019-1.50876417.1585364-.06287997.315547-.1253814.4653185-.1905482.4843741-.20998624 1.8658517-.22751208 3.6920703-.04763705h.0003902c.5181148.05162957 1.0400406.0523955 1.5583047.00228683l.2480232-.02405852c.0117073.02362925.0244604.04663802.0360624.07033752.0899862.18390235.1739237.36961543.2560973.55585534.0377989.08588874.0766477.17111405.1129013.25781065.0898913.2144155.1747172.4302749.2544778.6475782.0532565.1458653.1010379.2942437.1499159.4421188.0337014.1016585.0685502.2029813.1000155.3052096.0491707.1602028.0939629.3222906.1379316.4846827.0251512.0928468.0503999.1856428.073756.2789384.0411343.1643732.0794107.3298249.1148292.4963549.0207453.0967804.0404513.1938015.0591179.2910632.0313912.1615609.060999.3237189.0871999.4870242.0178888.1121872.0330381.2249911.0484215.3377481.0206048.1497951.041276.2995901.0574516.4507315.0156097.1474848.0264858.2959686.0378224.4443354.0093112.1199726.0209834.2392818.0274614.3599959.0144859.2740916.0232039.5493149.0232039.8261811 0 .2425208-.0070751.4833519-.0183414.7231216-.0028332.0611668-.0074147.1220448-.0109815.1830711-.0112195.1898341-.0251043.3789071-.0432312.5668095-.0048598.0509476-.0099655.1018315-.015317.1526516-.0245853.2306106-.0528039.4601988-.0876526.6876407l-.0002615.0018809c-.3827917 2.4880273-1.3797087 4.8414036-2.9006018 6.8473177-.3222723.0273641-.646689.0148981-.9659112-.0371161zm-1.622328-19.8300196c-.2626645.44548485-.7289399.73193537-1.2450445.76487768-.4295148.00998112-.8573913.05664448-1.2789606.13948091-.3616661.08119014-.7327266.11260368-1.1028945.09336971-.5294846-.10347081-.9866417-.43463124-1.2499967-.90548639-.0426809-.10670824-.034681-.49809537.959999-1.82507618.3929272-.43902177.8688288-.79596873 1.4002951-1.05028241.0342517.01795121.0691941.03477461.1033013.05297168.2182762.11618596.4331274.2376207.6445535.36430421.1331472.07960972.2637656.16289553.3942669.2464272.1349072.08605654.269268.17280382.4012484.2629345.1386483.09501134.2754937.19239796.4105361.29215986.0837697.06138143.1662789.12445262.2487607.18752381.3686865.28265612.723916.58111842 1.0656887.89538688-.5309575.1731004-.6820481.30674717-.7517534.48140854zm-8.1604363-2.12157164c-.1208165.12863344-.2930931.1960881-.4691312.18368771-.3984729-.13673601-.728741-.42208397-.9218722-.79648741-.1142594-.17137553-.1561559-.73644842.0708839-1.77860596.1135608.00054634.2260368.00557268.338985.00858536.1380993.00381268.2761753.00526439.4142512.01283902.0815297.00438244.1619511.01287804.2431217.01853267.1842379.01307707.3684953.0259395.5523546.04568584.0403004.00429268.0799999.01069267.120195.01531706.2213227.02555706.4424073.05394729.6627037.08917849.0267941.00426537.053116.00988488.0798633.01429073.2283236.03772876.4561478.07967215.6828558.1277853.0075513.0015961.0149347.00357463.0224859.00519415-.5043291.76194865-1.1086199 1.45277851-1.7966967 2.05399704zm-4.2206511 1.18329308c.6768305.82202887 1.075074 1.82507618.8525142 2.14673066-.2883509.5015997-.8017538.83250712-1.3776649.88795663-.2974021-.04107263-.5849276-.13558008-.8487015-.27896181-.466462-.21112185-.9954253-.45121929-1.3052591-.01715121-.1359834.25454018-.2058303.53916814-.2031257.82774203-.0342985.35404081-.0865092.88910006-.2915392.95731856-.37788928.03009229-.75811251.00894061-1.13033244-.06287997-1.02820184-.13147701-2.19433915-.28048767-2.42797012.55830607-.24961925.8990083.49695167 1.6154724.85556202 1.959601.04698105.0421236.09175605.0866446.1341462.1333853.07583992.0948917.79648696.9268288 2.69207134.9268288.4115859 0 .758766-.0282029 1.0381101-.0506848.7713397-.062119.9660829-.0617366 1.2625743.3483237.1866657.3558444.2770534.7543089.2621968 1.1558667.0369677.5689754.0872701 1.3483233.834602 1.4363545.4816279-.0036056.955936-.1182379 1.3860512-.3349852.5914648-.2336116 1.2629567-.4984739 1.711889-.2942087.9138722.4153949 1.839557 1.3391759 1.7073152 2.0015249-.0316292.1577755-.0556409.3216467-.0796487.4881949-.1288115.8902434-.2522846 1.4504578-1.1303324 1.7431406-1.5445838.5148641-1.9066283 1.304495-2.0099062 2.4942817-.1131455.8748739-.6766448 1.6263993-1.4847555 1.9801824-1.0544965.5274378-1.1387305 1.2671487-1.2359011 2.1238546l-.0175298.1539629c-.0385042.3717252-.0132422.7472962.0746965 1.1105165.0663102.3201208.0731707.4066339-.0076214.5232466-.1162562.0539285-.2490932.0598182-.369666.0163902-.3373547-.0552733-.6176438-.2902659-.730926-.6128036-.0422538-.4905564-.0523111-.9833547-.0301073-1.4752266.0198165-1.3681398.0137209-2.3006857-.2400895-2.7762952-.1698632-.4381878-.2936254-.8928761-.3692835-1.3567057-.1200542-.7775073-.3547004-1.5329236-.69628809-2.2416184-.34090514-.4588779-.7727972-.8425061-1.26868159-1.1269068-.59032133-.4012954-1.20083776-.8159293-1.20083776-1.289252 0-1.180257 0-2.9634132-1.57888613-4.0159981-1.36813905-.9119644-2.7827717-1.8551835-2.7827717-3.92644488.00265878-.24328325.0216609-.48611296.05687799-.72684843.03701459-.05706924.07247992-.11521165.11023208-.17175406.04399215-.06595119.08924868-.13088384.13421644-.19605063.09622624-.13938725.1937637-.27779499.29446993-.41377541.0442302-.05973851.08972479-.1183297.13476669-.17735406.10358623-.13571896.20846027-.27038816.31645235-.40246224.04940092-.06040583.10023014-.11951994.15050911-.17909065.10582623-.12549847.2126827-.25014622.32245429-.37211689.06066726-.06731314.12295012-.13297945.18473737-.19917258.10203696-.10944775.20457734-.21841551.30975967-.32483887.07822041-.07898142.15839203-.15577358.23823195-.23297549.09186722-.08897557.18359395-.17809162.27767775-.26476866.1016116-.09341654.20552954-.18407015.30952163-.27465352.07583992-.06619314.15108276-.13304969.22825341-.19776381.12950231-.10837458.26166997-.21338916.39460251-.31735789.05502434-.04311022.10920964-.08724679.16482324-.12961945.15944049-.1212123.32132779-.23900346.48566193-.35337348.03224972-.02263414.06383213-.04613852.09630039-.06855021.1881676-.12964417.37916057-.25498524.5729789-.37602323.01053658-.00659903.02084291-.01355317.03139119-.02012487 1.25885348-.7831828 2.62555755-1.3779003 4.05665915-1.76524402l.0079063-.00226341c.2333266-.06285786.4684717-.12000645.7054354-.17144577l.0189112-.00435902c-.0103363.0936793-.026707.19547958-.0491122.30540082-.0308526.20579112-.279707 2.03391511.4523781 2.92299955zm-10.7403399 4.75830011c.27212849 2.04955995 1.81897564 3.08772145 3.11191867 3.94978925 1.20351092.8022084 1.20351092 2.2137941 1.20351092 3.3479399 0 .8864307.81974158 1.4435973 1.54268325 1.9348283.39782809.2273721.74985988.5268062 1.03811013.8830044.29253656.636134.49506654 1.3099051.60175546 2.0019034.08434587.5368159.23369007 1.0613759.44474097 1.5621183.1779706.3338418.1600623 1.5758392.1478672 2.3974818-.0256374.5386393-.0120092 1.0784306.0407765 1.6150899.2199732.7553184.9077242 1.2781697 1.6943592 1.2881086.3178638.0191437.6243344-.1215131.8170723-.3750008.2111239-.3364609.2592865-.7501802.1310984-1.1261418-.0713051-.2814406-.092971-.5731622-.0640233-.8620484l.0179121-.1566321c.0918439-.8071645.1333853-1.1756873.8094509-1.5137203 1.0607032-.4628807 1.7911836-1.4596526 1.9131063-2.6105158.0838399-.96494.3079255-1.4314139 1.479413-1.8220283v.0003902c1.3791908-.4596017 1.5388706-1.5647875 1.6558656-2.3719481.0221034-.1520585.0434458-.3022086.0724097-.4466456.2248466-1.12462-.9397844-2.3155462-2.149387-2.8650913-.7499973-.3418535-1.5853642-.0118127-2.3216444.2785833-.3224688.1627959-.674848.2578618-1.0354408.2793442-.0853922-.2249824-.1260405-.4644717-.1196643-.7050299.0124195-.5488866-.1291068-1.0902843-.4085498-1.5628753-.5647877-.7816308-1.1798778-.7332328-1.9584565-.668827-.2785831.0224858-.5948911.048-.9748282.048-1.53239255 0-2.07774222-.627668-2.08307685-.6341461-.06353443-.0734316-.13122656-.1431603-.2027432-.2088428-.37194888-.357073-.75914457-.7724835-.64291054-1.19054769.13185937-.17416187 1.14367099-.04573266 1.57621687.00990829.48544099.10538454.98674435.11535169 1.47599062.02934632.6859739-.2286594.7640968-1.03429803.8212635-1.62233286.0099083-.10137361.0228644-.23551988.0369678-.33269837.110517.03887217.2610534.10708677.3727138.15777553.3620799.19552091.7606578.31410852 1.1707304.34832373.8351172-.0458555 1.5924472-.50491352 2.019432-1.22408525.5952736-.85975373-.2808699-2.34527495-.8917688-3.08726874-.4329244-.5255334-.3471801-1.87880883-.2865831-2.29039497.0399726-.19474303.0625783-.3926501.0675512-.59139093.5683693-.09251406 1.1415331-.15268111 1.716724-.18021065-.2120583 1.05885607-.1858339 1.79649473.0800546 2.1949999.4573185.68711772.9519794 1.06973997 1.4698911 1.13756042.0521966.00672743.1047648.01016446.157393.01029073.3467908-.00675885.678447-.1432832.9294975-.38262225h.0003903c.5666687-.50047586 1.676486-1.64500603 2.0597598-2.44979002.7597679.2059207 1.5022594.47097268 2.2206767.79272936-.4490543.25738435-.8480675.59356147-1.1779227.99242488-.8197416 1.09298679-1.3136415 1.95043807-1.0605921 2.58307777.3691214.73307648 1.0633651 1.24824679 1.8719512 1.3890998.1051212.01380774.2110494.02055586.3170729.02019902.3426199-.01084962.6837394-.0502393 1.0198155-.11775994.3783077-.07515486.7623033-.11811829 1.1478661-.12842921.7995649-.03020798 1.5272296-.47000372 1.9256838-1.16387065.2287767-.10010808.4661542-.17927925.7092207-.23654232.892399.9243321 1.6648391 1.95736988 2.2990883 3.0747302-.4428133.03896527-.8882768.03700575-1.3307303-.00585366-1.4241585-.14062432-3.2877233-.23628086-4.0800269.10861263-.1425286.062119-.2919021.12119019-.4424542.18102235-.9695092.38567006-2.2972541.91349029-1.8910028 2.43521048.1238483.5908783.5338069 1.0812849 1.0933686 1.3079253.2869655.1429111.3837654.1909306.41006.5060992.131477 1.5781261.8025904 2.3780476 1.9954243 2.3780476.3508478-.0270922.6956344.102866.9413102.3548018.1783239.2246206.2475845.5168811.1890261.7976386-.1257637.7538104.7690529.9474064 1.3612786 1.0754571.1459511.0316292.3601362.0781268.5041946.1253814-.2742539.2676082-.567027.515555-.8761435.7419977-.7145553.550306-1.4538872 1.1196638-1.4538872 2.0240068 0 .834224 0 2.5705002-.1882613 2.9470268-.1423422.3664262-.1132615.7773205.0792702 1.1200463.2684219.6112538.7904159 1.0747914 1.4291145 1.2690726.1716491.0382482.3466849.0592811.5225088.0627863-5.0239658 5.8249798-13.6061731 6.9818187-19.99316038 2.6949788-6.3869873-4.28684-8.56772908-12.6675919-5.0802688-19.52384864z" fill="#000" fill-rule="nonzero"/></g></svg>